<svg version="1.1" id="Layer_1" xmlns="http://www.w3.org/2000/svg" xmlns:xlink="http://www.w3.org/1999/xlink" x="0px" y="0px"
	 width="100%" viewBox="0 0 512 512" enable-background="new 0 0 512 512" xml:space="preserve">
<path fill="#2875AF" opacity="1.000000" stroke="none" 
	d="
M289.000000,513.000000 
	C192.690048,513.000000 96.880096,513.000000 1.035069,513.000000 
	C1.035069,342.398346 1.035069,171.796707 1.035069,1.097524 
	C171.559967,1.097524 342.120026,1.097524 512.840027,1.097524 
	C512.840027,171.666550 512.840027,342.333252 512.840027,513.000000 
	C438.463348,513.000000 363.981659,513.000000 289.000000,513.000000 
M144.985352,300.503967 
	C147.814728,292.215240 152.150696,284.110504 153.189392,275.603119 
	C156.235367,250.655151 157.978561,225.547791 160.191193,200.499268 
	C160.300034,199.267029 160.021957,198.000610 159.904251,196.497131 
	C153.833740,196.497131 148.185608,196.492691 142.537460,196.498276 
	C135.943344,196.504807 135.966507,196.510666 135.363647,203.293839 
	C133.314148,226.354431 131.546539,249.446808 128.984238,272.450531 
	C128.308716,278.515259 126.110146,284.886139 122.931412,290.090668 
	C117.427719,299.101776 105.037102,302.448608 94.470673,299.138367 
	C85.606384,296.361420 80.882339,288.818909 80.792450,277.114960 
	C80.772034,274.456268 80.969810,271.788147 81.204201,269.136475 
	C83.007957,248.730728 84.855194,228.328842 86.663445,207.923492 
	C86.981972,204.329041 87.181297,200.724014 87.479980,196.496872 
	C80.328011,196.496872 73.709496,196.638779 67.101509,196.436462 
	C63.842842,196.336685 62.896111,197.542526 62.652603,200.711349 
	C61.593643,214.491821 60.043365,228.235764 59.066174,242.020950 
	C58.055000,256.285583 56.431973,270.625214 57.000984,284.855072 
	C57.805061,304.963440 71.628906,320.474396 90.731331,323.450714 
	C112.911911,326.906616 131.586151,320.478851 144.985352,300.503967 
M445.824951,321.847321 
	C452.570953,321.847321 459.316956,321.847321 466.870880,321.847321 
	C451.401642,277.589050 436.242188,234.217163 421.082733,190.845276 
	C420.510864,190.813416 419.938995,190.781540 419.367126,190.749680 
	C397.149719,234.185211 374.932281,277.620758 352.315979,321.836182 
	C360.993591,321.836182 368.608276,321.962494 376.210175,321.707214 
	C377.425232,321.666412 379.029663,320.153168 379.687225,318.913757 
	C382.104889,314.356628 384.087341,309.569183 386.488861,305.002655 
	C387.150421,303.744659 388.688751,302.093872 389.843872,302.078735 
	C404.810547,301.882111 419.780731,301.948456 434.879822,301.948456 
	C436.563263,307.554321 438.323914,312.763153 439.648468,318.080597 
	C440.405548,321.119843 441.936432,322.298096 445.824951,321.847321 
M177.453903,224.929718 
	C168.450714,239.824158 164.928818,256.012817 166.139832,273.285522 
	C167.754166,296.310394 181.460358,314.730591 202.263397,321.416962 
	C220.461212,327.265991 238.109146,325.364410 255.048691,316.676544 
	C256.229095,316.071136 257.768433,314.808441 257.891174,313.711578 
	C258.919342,304.524628 259.654999,295.304962 260.572876,285.042847 
	C258.041840,287.106995 256.421509,288.448853 254.779663,289.763885 
	C248.415070,294.861481 241.252777,298.153381 233.185547,299.546936 
	C212.163864,303.178284 195.284927,292.826569 191.608185,273.442993 
	C190.601273,268.134674 190.673492,262.456055 191.224670,257.046600 
	C193.567764,234.050598 209.504028,219.204208 232.173996,218.516083 
	C245.004456,218.126617 256.124512,221.931778 265.009796,233.334427 
	C265.860016,224.236526 266.256500,216.291153 267.473877,208.473602 
	C268.117371,204.341064 266.676544,202.603455 263.333923,200.763870 
	C240.233429,188.050735 197.887299,192.067047 177.453903,224.929718 
M346.245087,298.209900 
	C331.979950,298.209900 317.714783,298.209900 303.038086,298.209900 
	C306.015289,264.074646 308.941406,230.525085 311.915649,196.423920 
	C304.081085,196.423920 296.947205,196.277878 289.833618,196.591690 
	C288.841339,196.635483 287.238129,198.874924 287.114014,200.209229 
	C284.000183,233.686523 281.037872,267.177948 278.072845,300.669006 
	C277.462799,307.559814 276.948517,314.459076 276.382019,321.454010 
	C300.882935,321.454010 324.740204,321.454010 348.856720,321.454010 
	C349.529480,314.637024 350.086975,308.178864 350.837219,301.743164 
	C351.187439,298.738861 349.931427,297.795807 346.245087,298.209900 
z"/>
<path fill="#FBFCFD" opacity="1.000000" stroke="none" 
	d="
M144.788361,300.806274 
	C131.586151,320.478851 112.911911,326.906616 90.731331,323.450714 
	C71.628906,320.474396 57.805061,304.963440 57.000984,284.855072 
	C56.431973,270.625214 58.055000,256.285583 59.066174,242.020950 
	C60.043365,228.235764 61.593643,214.491821 62.652603,200.711349 
	C62.896111,197.542526 63.842842,196.336685 67.101509,196.436462 
	C73.709496,196.638779 80.328011,196.496872 87.479980,196.496872 
	C87.181297,200.724014 86.981972,204.329041 86.663445,207.923492 
	C84.855194,228.328842 83.007957,248.730728 81.204201,269.136475 
	C80.969810,271.788147 80.772034,274.456268 80.792450,277.114960 
	C80.882339,288.818909 85.606384,296.361420 94.470673,299.138367 
	C105.037102,302.448608 117.427719,299.101776 122.931412,290.090668 
	C126.110146,284.886139 128.308716,278.515259 128.984238,272.450531 
	C131.546539,249.446808 133.314148,226.354431 135.363647,203.293839 
	C135.966507,196.510666 135.943344,196.504807 142.537460,196.498276 
	C148.185608,196.492691 153.833740,196.497131 159.904251,196.497131 
	C160.021957,198.000610 160.300034,199.267029 160.191193,200.499268 
	C157.978561,225.547791 156.235367,250.655151 153.189392,275.603119 
	C152.150696,284.110504 147.814728,292.215240 144.788361,300.806274 
z"/>
<path fill="#FBFCFD" opacity="1.000000" stroke="none" 
	d="
M445.370270,321.846985 
	C441.936432,322.298096 440.405548,321.119843 439.648468,318.080597 
	C438.323914,312.763153 436.563263,307.554321 434.879822,301.948456 
	C419.780731,301.948456 404.810547,301.882111 389.843872,302.078735 
	C388.688751,302.093872 387.150421,303.744659 386.488861,305.002655 
	C384.087341,309.569183 382.104889,314.356628 379.687225,318.913757 
	C379.029663,320.153168 377.425232,321.666412 376.210175,321.707214 
	C368.608276,321.962494 360.993591,321.836182 352.315979,321.836182 
	C374.932281,277.620758 397.149719,234.185211 419.367126,190.749680 
	C419.938995,190.781540 420.510864,190.813416 421.082733,190.845276 
	C436.242188,234.217163 451.401642,277.589050 466.870880,321.847321 
	C459.316956,321.847321 452.570953,321.847321 445.370270,321.846985 
M420.104858,251.315567 
	C419.054230,247.591293 418.003601,243.867035 416.667419,239.130630 
	C410.206207,253.487625 404.236176,266.753113 398.111816,280.361542 
	C408.660400,280.361542 418.328796,280.361542 428.589508,280.361542 
	C425.716187,270.562897 423.009033,261.330933 420.104858,251.315567 
z"/>
<path fill="#FBFCFD" opacity="1.000000" stroke="none" 
	d="
M177.656677,224.628418 
	C197.887299,192.067047 240.233429,188.050735 263.333923,200.763870 
	C266.676544,202.603455 268.117371,204.341064 267.473877,208.473602 
	C266.256500,216.291153 265.860016,224.236526 265.009796,233.334427 
	C256.124512,221.931778 245.004456,218.126617 232.173996,218.516083 
	C209.504028,219.204208 193.567764,234.050598 191.224670,257.046600 
	C190.673492,262.456055 190.601273,268.134674 191.608185,273.442993 
	C195.284927,292.826569 212.163864,303.178284 233.185547,299.546936 
	C241.252777,298.153381 248.415070,294.861481 254.779663,289.763885 
	C256.421509,288.448853 258.041840,287.106995 260.572876,285.042847 
	C259.654999,295.304962 258.919342,304.524628 257.891174,313.711578 
	C257.768433,314.808441 256.229095,316.071136 255.048691,316.676544 
	C238.109146,325.364410 220.461212,327.265991 202.263397,321.416962 
	C181.460358,314.730591 167.754166,296.310394 166.139832,273.285522 
	C164.928818,256.012817 168.450714,239.824158 177.656677,224.628418 
z"/>
<path fill="#FAFCFD" opacity="1.000000" stroke="none" 
	d="
M346.712341,298.197784 
	C349.931427,297.795807 351.187439,298.738861 350.837219,301.743164 
	C350.086975,308.178864 349.529480,314.637024 348.856720,321.454010 
	C324.740204,321.454010 300.882935,321.454010 276.382019,321.454010 
	C276.948517,314.459076 277.462799,307.559814 278.072845,300.669006 
	C281.037872,267.177948 284.000183,233.686523 287.114014,200.209229 
	C287.238129,198.874924 288.841339,196.635483 289.833618,196.591690 
	C296.947205,196.277878 304.081085,196.423920 311.915649,196.423920 
	C308.941406,230.525085 306.015289,264.074646 303.038086,298.209900 
	C317.714783,298.209900 331.979950,298.209900 346.712341,298.197784 
z"/>
<path fill="#317AB1" opacity="1.000000" stroke="none" 
	d="
M420.203369,251.707275 
	C423.009033,261.330933 425.716187,270.562897 428.589508,280.361542 
	C418.328796,280.361542 408.660400,280.361542 398.111816,280.361542 
	C404.236176,266.753113 410.206207,253.487625 416.667419,239.130630 
	C418.003601,243.867035 419.054230,247.591293 420.203369,251.707275 
z"/>
</svg>